<svg width="132" height="173" viewBox="0 0 132 173" fill="none" xmlns="http://www.w3.org/2000/svg">
<g clip-path="url(#clip0_13_193)">
<path fill-rule="evenodd" clip-rule="evenodd" d="M124.8 144.788C124.667 153.837 123.333 160.757 112.933 162.487C98 165.015 81.8667 163.019 66.9333 162.753C54.4 162.62 41.7333 163.019 29.2 163.019C18.8 163.019 8.93333 161.688 7.06667 149.578C5.73333 141.594 6.66667 132.678 6.53333 124.56C6.44444 115.866 6.35555 107.171 6.26667 98.4769C6 83.4392 4 67.8692 11.4667 54.0292C14.6667 47.9077 19.4667 42.9838 25.0667 38.8584C26.2667 37.9269 30.1333 36.33 30.9333 34.9992C30.9333 34.9105 30.9778 34.8661 31.0667 34.8661C31.0667 34.6 30.8 32.3377 30.6667 30.3415C29.0667 30.2084 27.6 30.3415 26 30.3415C24.6667 30.4746 23.2 30.0753 22.9333 28.6115C22.6667 26.4823 24.4 25.95 26.4 25.8169C26.4 21.8246 26.2667 17.8323 26.4 13.84C26.4 13.7512 26.4 13.7069 26.4 13.7069C26.4 13.4407 26.4444 13.2189 26.5333 13.0415C26.6222 13.0415 26.6667 13.0415 26.6667 13.0415C26.7556 12.8641 26.8444 12.6866 26.9333 12.5092C29.7333 9.71458 34.2667 11.0453 37.8667 11.0453C45.2 11.0453 52.5333 10.9123 60 11.0453C68.4 11.0453 76.8 11.0453 85.2 10.9123C90.6667 10.7792 97.4667 9.44843 102.8 10.9123C103.333 11.0453 103.867 11.5777 104 12.11C105.2 16.3684 104.533 21.9577 104.533 26.3492C106.533 26.3492 108.4 26.8815 108.267 29.0107C108.133 30.6077 106.8 31.273 105.467 31.273C103.956 31.3618 102.4 31.3618 100.8 31.273C100.8 33.2692 100.8 35.1323 101.6 36.1969C104 39.1246 109.867 40.4554 112.933 43.1169C117.467 46.843 120.267 52.6984 122.267 58.1546C125.2 66.5384 124.267 74.2569 124.133 83.04C124.133 91.1577 124.4 99.0092 124.667 107.127C125.2 119.636 124.933 132.278 124.8 144.788ZM10.5333 140.13C19.7333 139.864 28.8 138.932 38.1333 139.465C47.4667 140.13 56 139.997 65.3333 139.331C74.6667 138.533 84.5333 139.198 94 139.198C99.3333 139.065 104.667 139.997 110.133 139.731C113.867 139.465 117.333 138.666 121.067 138.932C121.067 138.223 121.067 137.557 121.067 136.936C120.8 126.556 121.467 116.043 120.933 105.663C120.533 98.8761 120.533 92.3553 120.533 85.5684C120.533 81.5761 120.933 77.4507 121.067 73.3253C84.4 69.2 46.8 72.2607 10 73.0592C9.33333 80.2453 9.73333 87.8307 9.86667 95.283C10.1333 109.478 10.3111 123.717 10.4 138.001C10.4889 138.71 10.5333 139.42 10.5333 140.13ZM97.3333 34.9992C97.3333 33.0474 97.3333 31.0512 97.3333 29.0107C76.2667 29.8092 55.2 27.813 34.1333 28.7446C34.2667 30.4746 34.5333 32.6038 34.2667 34.4669C55.3333 34.8661 76.2667 34.733 97.3333 34.9992ZM30 14.7715C29.8667 17.5661 29.0667 22.49 29.7333 25.0184C30.2667 25.1515 31.2 25.1515 32.6667 25.1515C40.6667 25.1515 48.6667 25.0184 56.6667 24.8854C64 24.8854 71.2 25.0184 78.5333 25.4177C82.0889 25.5064 85.6889 25.5507 89.3333 25.5507C90.9333 25.5507 97.7333 26.2161 99.0667 25.2846C101.2 23.9538 101.333 21.2923 100.667 18.7638C99.3333 13.3077 97.2 14.3723 91.7333 14.5053C85.0667 14.5053 78.5333 14.7715 71.8667 14.7715C63.8667 14.7715 56 14.6384 48 14.6384C45.0667 14.6384 33.2 13.1746 30 14.7715ZM10.5333 69.333C47.0667 68.5346 84.5333 65.4738 120.933 69.5992C120.844 67.9136 120.667 66.3166 120.4 64.8084C117.733 51.7669 109.867 44.7138 98.6667 38.7253C76.8 38.3261 54.8 38.5923 32.9333 38.06C30.2667 41.52 24.1333 43.9154 21.0667 47.1092C14.5333 53.63 11.7333 61.2153 10.5333 69.333ZM121.067 147.981C121.156 146.207 121.156 144.433 121.067 142.658C116.933 142.392 112.533 143.324 108.267 143.457C102.933 143.457 97.6 142.792 92.2667 142.925C83.3333 143.058 74.1333 142.392 65.3333 143.058C55.3333 143.723 46.2667 143.723 36.4 143.058C27.7333 142.658 19.2 143.59 10.5333 143.856C10.9333 151.575 12.6667 158.495 23.0667 159.293C28.2667 159.692 33.6 159.293 38.6667 159.293C61.0667 159.16 83.4667 160.225 105.6 159.16C114.133 158.761 120.533 157.563 121.067 147.981Z" fill="white"/>
<path d="M33.0667 21.9576C33.0667 20.5381 33.1111 19.163 33.2 17.8322C33.3333 15.4369 37.0667 15.4369 36.9333 17.8322C36.8445 19.163 36.8 20.5381 36.8 21.9576C36.8 24.353 33.2 24.353 33.0667 21.9576Z" fill="white"/>
<path d="M63.3333 21.9576C63.3333 20.5381 63.3333 19.163 63.3333 17.8322C63.4667 15.4369 67.2 15.4369 67.0667 17.8322C67.0667 19.163 67.0667 20.5381 67.0667 21.9576C67.0667 24.353 63.3333 24.353 63.3333 21.9576Z" fill="white"/>
<path d="M43.2 21.9576C43.2 20.5381 43.2 19.163 43.2 17.8322C43.3333 15.4369 47.0667 15.4369 46.9333 17.8322C46.8445 19.163 46.8445 20.5381 46.9333 21.9576C46.9333 24.353 43.2 24.353 43.2 21.9576Z" fill="white"/>
<path d="M53.2 21.9576C53.2 20.5381 53.2445 19.163 53.3333 17.8322C53.4667 15.4369 57.2 15.4369 57.0667 17.8322C56.9778 19.163 56.9333 20.5381 56.9333 21.9576C57.0667 24.353 53.3333 24.353 53.2 21.9576Z" fill="white"/>
<path d="M73.3333 21.9576C73.3333 20.5381 73.3778 19.163 73.4667 17.8322C73.6 15.4369 77.3333 15.4369 77.2 17.8322C77.1111 19.163 77.0667 20.5381 77.0667 21.9576C77.2 24.353 73.4667 24.353 73.3333 21.9576Z" fill="white"/>
<path d="M83.4667 21.9576C83.4667 20.5381 83.4667 19.163 83.4667 17.8322C83.6 15.4369 87.3333 15.4369 87.2 17.8322C87.2 19.163 87.2 20.5381 87.2 21.9576C87.2 24.353 83.4667 24.353 83.4667 21.9576Z" fill="white"/>
<path d="M93.4667 21.9576C93.4667 20.5381 93.5111 19.163 93.6 17.8322C93.7333 15.4369 97.4667 15.4369 97.3333 17.8322C97.2445 19.163 97.2 20.5381 97.2 21.9576C97.3333 24.353 93.6 24.353 93.4667 21.9576Z" fill="white"/>
<path d="M34.8 97.9446C32.9334 107.925 31.2 117.906 28.2667 127.355C27.6 129.484 24.8 128.952 24.6667 126.955C23.3334 113.781 22.2667 100.606 21.0667 87.4315C20.8 85.0361 24.5334 85.0361 24.6667 87.4315C25.7334 97.1461 26.5334 106.728 27.3334 116.442C29.6 106.728 31.0667 96.6138 33.0667 86.8992C33.4667 85.1692 36.4 85.0361 36.6667 86.8992C38.2667 97.2792 40 107.526 43.0667 117.507C43.7778 107.748 44.3556 97.9446 44.8 88.0969C44.9334 85.7015 48.5334 85.7015 48.5334 88.0969C47.9111 101.05 47.1111 114.003 46.1334 126.955C45.8667 129.085 43.2 129.351 42.4 127.355C38.8 117.773 36.5334 107.925 34.8 97.9446Z" fill="white"/>
<path d="M53.8667 126.822C51.7334 114.047 51.0667 101.405 52.1334 88.6292C52.2667 86.2338 56 86.2338 55.8667 88.6292C55.3334 93.9523 55.3334 99.4084 55.4667 104.732C57.3334 104.865 59.2 104.598 61.0667 104.732C63.2 104.865 65.2 104.865 67.2 104.998C67.0667 99.4085 67.0667 93.9523 67.0667 88.3631C67.0667 85.9677 70.8 85.9677 70.8 88.3631C70.6667 101.272 71.0667 113.914 72 126.822C72.1334 129.218 68.4 129.218 68.2667 126.822C67.8223 120.701 67.5111 114.668 67.3334 108.724C65.2 108.591 63.2 108.458 61.0667 108.458C59.2 108.325 57.3334 108.591 55.6 108.458C55.8667 114.224 56.4889 120.035 57.4667 125.891C57.8667 128.153 54.2667 129.218 53.8667 126.822Z" fill="white"/>
<path d="M75.0667 108.591C74.8 101.937 74.6667 95.3274 74.6667 88.7622C74.6667 87.9638 75.0667 87.4315 75.6 87.1653C75.8667 86.7661 76.4 86.4999 76.9334 86.4999C80.6667 86.5887 84.4 86.6774 88.1334 86.7661C90.5334 86.7661 90.5334 90.4922 88.1334 90.4922C84.8445 90.4035 81.6 90.3592 78.4 90.3592C78.4 95.6822 78.5334 101.05 78.8 106.461C81.9111 106.728 85.0222 106.816 88.1334 106.728C90.5334 106.595 90.5334 110.321 88.1334 110.321C85.0222 110.498 81.9556 110.454 78.9334 110.188C79.0667 112.982 78.8 116.309 79.4667 119.237C80.8 125.491 82.5333 126.955 88.9333 125.891C91.3333 125.491 92.2667 129.085 90 129.484C85.0667 130.282 78 131.48 76.2667 125.758C74.6667 120.701 75.3334 113.781 75.0667 108.591Z" fill="white"/>
<path d="M92.1333 89.1615C91.3333 86.8992 94.9333 85.9676 95.7333 88.0969C97.9556 94.041 100.222 99.8964 102.533 105.663C103.333 103.002 104 99.1423 104.267 97.9446C105.156 94.4846 106 90.9802 106.8 87.4315C107.333 85.1692 110.933 86.1007 110.4 88.4961C109.333 93.2869 108.133 98.0777 106.8 102.868C106.133 105.131 105.867 108.325 104.267 110.321C104.267 115.91 104.578 121.41 105.2 126.822C105.467 129.218 101.733 129.218 101.467 126.822C100.844 121.499 100.578 116.132 100.667 110.72C100.578 110.631 100.489 110.543 100.4 110.454C97.5556 103.356 94.8 96.2589 92.1333 89.1615Z" fill="white"/>
<path d="M17.0667 63.0784C18.9334 56.0254 24 50.5692 30.6667 47.9077C32.8 46.9761 33.7334 50.5692 31.6 51.3677C26.1334 53.63 22.2667 58.4207 20.6667 64.01C20.1334 66.4054 16.5334 65.3407 17.0667 63.0784Z" fill="white"/>
<path d="M35.7333 49.5046C38.1333 49.5046 38.1333 45.7784 35.7333 45.7784C33.3333 45.7784 33.3333 49.5046 35.7333 49.5046Z" fill="white"/>
</g>
<defs>
<clipPath id="clip0_13_193">
<rect width="132" height="173" fill="white"/>
</clipPath>
</defs>
</svg>
