<svg width="166" height="154" viewBox="0 0 166 154" fill="none" xmlns="http://www.w3.org/2000/svg">
<g clip-path="url(#clip0_13_44)">
<path d="M142.022 57.1248C142.022 57.2564 142.022 57.388 141.89 57.5197C137.016 66.4701 137.016 76.3419 134.644 85.9504C132.8 93.0581 130.297 99.9026 129.506 107.274C128.716 114.25 128.057 121.752 128.848 128.728C129.506 135.046 131.878 140.969 132.537 147.287C132.8 149.656 129.243 149.525 128.848 147.287C128.057 140.048 125.29 133.335 125.027 126.096C124.764 118.593 125.159 110.959 126.213 103.588C127.398 95.6906 130.56 88.3197 132.01 80.5538C133.327 73.5778 134.117 66.865 136.621 60.4154C133.722 61.6 130.297 62.5214 126.476 62.9162C111.589 64.3641 87.8746 66.865 81.2873 51.3333C80.4968 53.0444 79.4429 54.7556 77.9937 56.2034C71.4064 62.653 59.681 64.1009 50.854 64.3641C43.2127 64.6274 33.9905 64.8906 26.7445 61.3368C28.8524 69.6291 29.7746 78.1846 32.0143 86.4769C33.727 92.6632 35.8349 98.5863 36.6254 104.904C37.5476 112.144 38.0746 119.778 37.6794 127.017C37.2841 133.993 34.5175 140.443 33.727 147.287C33.4635 149.525 29.7746 149.656 30.0381 147.287C30.8286 140.706 33.4635 134.52 33.9905 127.938C34.5175 121.094 33.9905 113.986 33.3318 107.274C32.4095 99.2444 29.5111 92.0051 27.6667 84.2393C25.5587 75.5521 24.7683 66.7333 22.0016 58.1778C15.546 52.5179 11.9889 44.4889 11.4619 35.8017C11.4619 33.4325 15.0191 33.4325 15.1508 35.8017C15.6778 44.3573 20.0254 53.9658 28.1937 58.0462C34.3857 61.3368 43.8714 60.9419 50.854 60.6786C58.4953 60.4154 69.6937 59.3624 75.4905 53.5709C80.2333 48.7009 79.3111 39.7504 79.3111 33.4325C79.3111 31.1949 83 31.1949 83 33.4325C83 36.7231 83.1318 40.4085 82.8683 43.8308C83.0439 44.094 83.1318 44.4011 83.1318 44.7521C85.7667 63.9692 110.667 60.547 125.159 59.3624C139.783 58.0462 147.029 50.6752 147.424 35.5385C147.556 33.1692 151.113 33.1692 151.113 35.5385C150.849 45.3664 147.819 52.5618 142.022 57.1248Z" fill="white"/>
<path d="M115.937 80.4222C112.643 86.2137 103.552 85.5556 97.8873 85.4239C92.7492 85.4239 84.581 85.5555 80.7603 81.0803C79.4429 83.0547 77.2032 84.3709 73.7778 85.0291C65.6095 86.6085 52.8302 88.188 46.3746 81.7385C44.7937 80.0273 47.4286 77.3949 49.0095 79.106C53.8841 83.9761 64.0286 82.3966 70.3524 81.7385C81.0238 80.8171 79.3111 73.5778 78.9159 65.5487C78.7841 63.1795 82.473 63.1795 82.6048 65.5487C82.7365 69.7607 83.2635 73.841 82.473 77.2632C82.6487 77.351 82.7804 77.5265 82.8683 77.7897C85.6349 83.1863 109.481 84.2393 112.775 78.5795C113.96 76.6051 117.122 78.4479 115.937 80.4222Z" fill="white"/>
<path d="M78.7841 100.034C79.0476 98.1915 78.9159 96.3487 78.7841 94.506C78.6524 92.1368 82.3413 92.1368 82.473 94.506C82.6048 96.4803 82.7365 98.9812 82.6048 101.482C84.8445 108.326 91.9587 107.405 97.8873 107.537C103.552 107.668 107.241 105.826 108.164 99.5077C108.427 97.1385 111.984 98.1915 111.721 100.561C110.535 108.326 105.265 111.354 97.8873 111.222C93.408 111.091 87.7429 111.354 83.527 109.248C82.3413 108.721 81.6826 107.932 81.0238 107.142C81.0238 107.23 81.0238 107.274 81.0238 107.274C78.9159 110.827 74.7 110.696 71.0111 110.959C65.873 111.222 60.2079 111.617 55.4651 109.379C51.6445 107.537 50.9857 103.983 50.854 100.034C50.7222 97.665 54.4111 97.665 54.5429 100.034C54.9381 108.458 64.8191 107.668 71.0111 107.274C73.3826 107.142 76.9397 106.221 78.2572 103.983C78.7841 103.193 78.7841 101.087 78.7841 100.034Z" fill="white"/>
<path d="M131.087 53.8342C133.459 53.8342 133.459 50.1487 131.087 50.1487C128.716 50.1487 128.716 53.8342 131.087 53.8342Z" fill="white"/>
<path d="M31.8826 53.8342C34.254 53.8342 34.254 50.1487 31.8826 50.1487C29.5111 50.1487 29.5111 53.8342 31.8826 53.8342Z" fill="white"/>
<path d="M111.852 124.779C111.852 128.202 112.116 132.414 108.559 134.388C105.924 135.836 101.84 135.968 98.9413 135.836C92.881 135.573 84.8445 136.099 81.4191 131.229C79.1794 133.598 74.9635 134.256 72.0651 134.783C67.5857 135.441 60.7349 136.099 56.5191 133.993C53.0937 132.282 52.5667 128.597 52.0397 125.174C51.6445 122.937 55.2016 121.884 55.4651 124.253C56.2556 128.728 57.1778 131.097 62.4476 131.361C65.6095 131.624 68.9032 131.624 72.0651 131.097C74.9635 130.571 77.3349 130.176 78.6524 127.412C79.9699 124.385 79.5746 121.489 79.4429 118.33C79.4429 115.961 83.1318 115.961 83.1318 118.33C83.2635 120.568 83.527 123.463 83.2635 126.096C84.581 133.203 92.881 131.887 98.4143 132.15C100.39 132.15 102.367 132.282 104.343 131.756C108.164 130.703 108.164 128.333 108.295 124.779C108.295 122.41 111.984 122.41 111.852 124.779Z" fill="white"/>
<path d="M46.1111 10.2667C56.9143 10.2667 65.2143 9.47692 73.9095 16.453C75.754 18.0325 73.1191 20.5333 71.2746 19.0855C63.6333 12.7675 55.4651 13.9521 46.1111 13.9521C43.7397 13.9521 43.7397 10.2667 46.1111 10.2667Z" fill="white"/>
<path d="M88.2699 16.453C95.3841 8.81878 106.846 10.0034 116.464 9.60852C118.835 9.60852 118.835 13.294 116.464 13.294C108.032 13.6889 97.0968 12.3726 90.773 19.0854C89.1921 20.7966 86.5572 18.1641 88.2699 16.453Z" fill="white"/>
</g>
<defs>
<clipPath id="clip0_13_44">
<rect width="166" height="154" fill="white"/>
</clipPath>
</defs>
</svg>
