<svg width="21" height="22" viewBox="0 0 21 22" fill="none" xmlns="http://www.w3.org/2000/svg">
<g clip-path="url(#clip0_2_97)">
<path d="M7.30643 11.0469C7.30643 9.16189 8.8341 7.63339 10.7191 7.63339C12.6041 7.63339 14.1326 9.16189 14.1326 11.0469C14.1326 12.9319 12.6041 14.4604 10.7191 14.4604C8.8341 14.4604 7.30643 12.9319 7.30643 11.0469ZM5.46115 11.0469C5.46115 13.9509 7.8151 16.3048 10.7191 16.3048C13.6231 16.3048 15.977 13.9509 15.977 11.0469C15.977 8.14289 13.6231 5.78894 10.7191 5.78894C7.8151 5.78894 5.46115 8.14289 5.46115 11.0469ZM14.9564 5.5805C14.9564 6.25873 15.5064 6.80959 16.1855 6.80959C16.8637 6.80959 17.4145 6.25873 17.4145 5.5805C17.4145 4.90227 16.8645 4.35225 16.1855 4.35225C15.5064 4.35225 14.9564 4.90227 14.9564 5.5805ZM6.58188 19.3817C5.58356 19.3362 5.04097 19.1699 4.68035 19.0293C4.20228 18.8432 3.86152 18.6215 3.50255 18.2634C3.14441 17.9053 2.92192 17.5645 2.73665 17.0864C2.59604 16.7258 2.42979 16.1832 2.3843 15.1849C2.33467 14.1055 2.32474 13.7813 2.32474 11.0469C2.32474 8.31245 2.3355 7.98905 2.3843 6.90884C2.42979 5.91052 2.59686 5.36876 2.73665 5.00732C2.92275 4.52925 3.14441 4.18848 3.50255 3.82951C3.86069 3.47137 4.20146 3.24888 4.68035 3.06361C5.04097 2.923 5.58356 2.75675 6.58188 2.71126C7.66126 2.66163 7.98549 2.65171 10.7191 2.65171C13.4535 2.65171 13.7769 2.66246 14.8571 2.71126C15.8554 2.75675 16.3972 2.92383 16.7586 3.06361C17.2367 3.24888 17.5775 3.47137 17.9365 3.82951C18.2946 4.18765 18.5163 4.52925 18.7024 5.00732C18.843 5.36794 19.0092 5.91052 19.0547 6.90884C19.1043 7.98905 19.1143 8.31245 19.1143 11.0469C19.1143 13.7805 19.1043 14.1047 19.0547 15.1849C19.0092 16.1832 18.8421 16.7258 18.7024 17.0864C18.5163 17.5645 18.2946 17.9053 17.9365 18.2634C17.5783 18.6215 17.2367 18.8432 16.7586 19.0293C16.398 19.1699 15.8554 19.3362 14.8571 19.3817C13.7777 19.4313 13.4535 19.4412 10.7191 19.4412C7.98549 19.4412 7.66126 19.4313 6.58188 19.3817ZM6.49752 0.869284C5.40738 0.918911 4.66298 1.09178 4.01205 1.34487C3.33878 1.60624 2.76808 1.95693 2.1982 2.52599C1.62914 3.09504 1.27845 3.66574 1.01708 4.33984C0.763988 4.99077 0.591122 5.73517 0.541495 6.8253C0.491041 7.91709 0.479462 8.26613 0.479462 11.0469C0.479462 13.8276 0.491041 14.1767 0.541495 15.2684C0.591122 16.3586 0.763988 17.103 1.01708 17.7539C1.27845 18.4272 1.62832 18.9987 2.1982 19.5678C2.76725 20.1368 3.33795 20.4867 4.01205 20.7489C4.66381 21.002 5.40738 21.1748 6.49752 21.2245C7.59013 21.2741 7.93834 21.2865 10.7191 21.2865C13.5007 21.2865 13.8489 21.2749 14.9407 21.2245C16.0308 21.1748 16.7752 21.002 17.4261 20.7489C18.0994 20.4867 18.6701 20.1368 19.24 19.5678C19.809 18.9987 20.1589 18.4272 20.4211 17.7539C20.6742 17.103 20.8479 16.3586 20.8967 15.2684C20.9463 14.1758 20.9579 13.8276 20.9579 11.0469C20.9579 8.26613 20.9463 7.91709 20.8967 6.8253C20.847 5.73517 20.6742 4.99077 20.4211 4.33984C20.1589 3.66657 19.809 3.09587 19.24 2.52599C18.6709 1.95693 18.0994 1.60624 17.4269 1.34487C16.7752 1.09178 16.0308 0.918084 14.9415 0.869284C13.8497 0.819658 13.5007 0.807251 10.7199 0.807251C7.93834 0.807251 7.59013 0.818831 6.49752 0.869284Z" fill="#BBF246"/>
</g>
<defs>
<clipPath id="clip0_2_97">
<rect width="20.4792" height="20.4792" fill="white" transform="translate(0.479248 0.807251)"/>
</clipPath>
</defs>
</svg>
