<svg width="21" height="21" viewBox="0 0 21 21" fill="none" xmlns="http://www.w3.org/2000/svg">
<g clip-path="url(#clip0_13_512)">
<path d="M7.3064 10.2396C7.3064 8.35464 8.83407 6.82614 10.7191 6.82614C12.604 6.82614 14.1325 8.35464 14.1325 10.2396C14.1325 12.1246 12.604 13.6531 10.7191 13.6531C8.83407 13.6531 7.3064 12.1246 7.3064 10.2396ZM5.46112 10.2396C5.46112 13.1436 7.81507 15.4976 10.7191 15.4976C13.623 15.4976 15.977 13.1436 15.977 10.2396C15.977 7.33564 13.623 4.98168 10.7191 4.98168C7.81507 4.98168 5.46112 7.33564 5.46112 10.2396ZM14.9563 4.77325C14.9563 5.45148 15.5064 6.00234 16.1854 6.00234C16.8637 6.00234 17.4145 5.45148 17.4145 4.77325C17.4145 4.09502 16.8645 3.54499 16.1854 3.54499C15.5064 3.54499 14.9563 4.09502 14.9563 4.77325ZM6.58185 18.5744C5.58353 18.5289 5.04094 18.3627 4.68032 18.2221C4.20225 18.036 3.86148 17.8143 3.50252 17.4562C3.14438 17.098 2.92189 16.7573 2.73661 16.2792C2.59601 15.9186 2.42976 15.376 2.38427 14.3777C2.33464 13.2983 2.32471 12.9741 2.32471 10.2396C2.32471 7.5052 2.33547 7.1818 2.38427 6.10159C2.42976 5.10327 2.59683 4.56151 2.73661 4.20007C2.92271 3.722 3.14438 3.38123 3.50252 3.02226C3.86066 2.66412 4.20143 2.44163 4.68032 2.25636C5.04094 2.11575 5.58353 1.9495 6.58185 1.90401C7.66123 1.85438 7.98546 1.84446 10.7191 1.84446C13.4535 1.84446 13.7769 1.85521 14.8571 1.90401C15.8554 1.9495 16.3972 2.11657 16.7586 2.25636C17.2367 2.44163 17.5775 2.66412 17.9364 3.02226C18.2946 3.3804 18.5162 3.722 18.7023 4.20007C18.8429 4.56069 19.0092 5.10327 19.0547 6.10159C19.1043 7.1818 19.1142 7.5052 19.1142 10.2396C19.1142 12.9732 19.1043 13.2975 19.0547 14.3777C19.0092 15.376 18.8421 15.9186 18.7023 16.2792C18.5162 16.7573 18.2946 17.098 17.9364 17.4562C17.5783 17.8143 17.2367 18.036 16.7586 18.2221C16.398 18.3627 15.8554 18.5289 14.8571 18.5744C13.7777 18.624 13.4535 18.634 10.7191 18.634C7.98546 18.634 7.66123 18.624 6.58185 18.5744ZM6.49748 0.0620333C5.40735 0.11166 4.66295 0.284526 4.01202 0.537622C3.33875 0.798988 2.76805 1.14968 2.19817 1.71873C1.62911 2.28779 1.27842 2.85849 1.01705 3.53259C0.763957 4.18352 0.591091 4.92792 0.541464 6.01805C0.491011 7.10984 0.479431 7.45888 0.479431 10.2396C0.479431 13.0204 0.491011 13.3694 0.541464 14.4612C0.591091 15.5513 0.763957 16.2957 1.01705 16.9467C1.27842 17.6199 1.62829 18.1915 2.19817 18.7605C2.76722 19.3296 3.33792 19.6794 4.01202 19.9416C4.66378 20.1947 5.40735 20.3676 6.49748 20.4172C7.5901 20.4668 7.93831 20.4792 10.7191 20.4792C13.5006 20.4792 13.8488 20.4677 14.9406 20.4172C16.0308 20.3676 16.7752 20.1947 17.4261 19.9416C18.0994 19.6794 18.6701 19.3296 19.2399 18.7605C19.809 18.1915 20.1589 17.6199 20.4211 16.9467C20.6742 16.2957 20.8478 15.5513 20.8966 14.4612C20.9463 13.3686 20.9579 13.0204 20.9579 10.2396C20.9579 7.45888 20.9463 7.10984 20.8966 6.01805C20.847 4.92792 20.6742 4.18352 20.4211 3.53259C20.1589 2.85932 19.809 2.28861 19.2399 1.71873C18.6709 1.14968 18.0994 0.798988 17.4269 0.537622C16.7752 0.284526 16.0308 0.110833 14.9415 0.0620333C13.8497 0.0124067 13.5006 0 10.7199 0C7.93831 0 7.5901 0.0115795 6.49748 0.0620333Z" fill="#192026"/>
</g>
<defs>
<clipPath id="clip0_13_512">
<rect width="20.4792" height="20.4792" fill="white" transform="translate(0.479248)"/>
</clipPath>
</defs>
</svg>
