<svg width="132" height="182" viewBox="0 0 132 182" fill="none" xmlns="http://www.w3.org/2000/svg">
<g clip-path="url(#clip0_13_342)">
<path fill-rule="evenodd" clip-rule="evenodd" d="M121.6 144.017C121.467 151.403 123.467 161.558 119.2 168.152C115.867 173.428 111.733 172.9 106.133 172.9C99.2 172.768 92.3999 173.559 85.4666 173.428C68.2666 173.296 50.9333 174.219 33.6 174.087C23.8666 173.955 10.5333 175.933 5.33328 165.251C2.66662 159.975 3.73328 152.458 3.73328 146.655C3.55551 139.182 3.42217 131.708 3.33328 124.235C3.19995 104.848 3.06662 85.329 3.46662 65.942C3.59995 58.5565 3.33328 51.0391 3.99995 43.7855C4.39995 39.6971 5.06662 37.1913 9.19995 35.4768C18.4 31.784 32.1333 33.8942 41.8666 33.6304C42 33.6304 42.1333 33.7623 42.1333 33.7623C45.0666 31.6522 50 30.2014 50.6666 27.8275C52 22.684 48 18.2 53.7333 13.8478C58.7999 10.0232 69.7333 9.62752 73.7333 15.1666C75.6 17.6724 75.7333 20.7058 75.3333 23.6072C74.6666 28.3551 72.2666 28.6188 76.7999 31.5203C78.1333 32.4435 79.6 33.2348 80.9333 34.0261C80.9333 34.0261 80.9777 34.0261 81.0666 34.0261C89.8666 34.2898 98.6666 34.158 107.333 34.2898C116.4 34.4217 119.6 33.8942 121.067 42.8623C125.067 65.5464 121.733 88.4942 121.6 111.178C121.467 122.125 121.6 133.071 121.6 144.017ZM39.6 43.1261C39.6 44.8406 39.3333 46.6869 39.6 48.4014C40.1333 51.6985 39.0666 51.9623 42.9333 53.5449C44.5333 54.2043 47.7333 53.6768 49.6 53.6768C56.6666 53.6768 63.7333 53.5449 70.7999 53.5449C76.5333 53.413 83.8666 54.4681 85.5999 47.6101C86.2666 45.1043 85.0666 42.7304 83.7333 40.884C80.5333 36.5319 74.1333 34.6855 69.8666 31.1246C69.2 30.5971 69.3333 29.542 69.6 28.8826C70.9333 26.3768 72.6666 22.2884 71.6 19.2551C69.7333 14.5072 62.6666 13.9797 58.5333 15.5623C51.7333 18.2 53.5999 24.0029 54.7999 29.4101C54.9333 30.0695 54.6666 31.1246 53.8666 31.3884C48.9333 33.7623 40.4 37.0594 39.6 43.1261ZM117.6 43.9174C115.467 37.1913 112.4 38.1145 105.733 37.9826C102.444 37.9826 99.1111 37.9386 95.7333 37.8507C92.4444 37.8507 89.2 37.8067 86 37.7188C87.4666 39.1695 88.5333 41.0159 89.0666 43.3898C89.1555 44.0932 89.2888 44.7966 89.4666 45.5C96.3999 45.3681 107.2 43.7855 107.6 51.9623C108.133 60.5348 107.733 69.1072 107.867 77.6797C108 99.4406 108.133 121.333 107.867 143.094C107.867 146.655 109.2 154.436 107.467 157.733C106 160.503 102.933 160.503 100.133 160.635C92.1333 160.899 84.1333 161.426 76.1333 161.294C66.2666 161.03 56.4 161.426 46.6666 162.085C41.7333 162.349 36.8 162.349 31.8666 161.954C29.3333 161.822 23.2 161.822 21.3333 160.371C17.7333 157.338 18.1333 150.612 17.7333 146.259C16.4 127.928 17.4666 109.464 16.8 91C16.6666 79.3942 17.4666 67.7884 17.0666 56.3145C16.9333 52.7536 15.7333 48.1377 19.2 46.0275C22.6666 44.1811 30.9333 45.1043 35.8666 45.3681C35.8666 44.5768 35.8666 43.7855 35.8666 43.1261C35.8666 42.7744 35.9555 42.4666 36.1333 42.2029C36.5333 40.3565 37.3333 38.7739 38.4 37.3232C28.9333 36.9275 10.9333 35.7406 7.86662 42.3348C6.13329 46.4232 7.46662 54.7319 7.33328 59.2159C7.15551 67.5686 7.02217 75.9212 6.93328 84.2739C6.79995 99.3087 6.93328 114.475 7.19995 129.642C7.28884 136.412 7.37773 143.182 7.46662 149.952C7.59995 158.525 6.93328 167.361 17.7333 169.999C21.3333 170.922 26.1333 170.262 29.8666 170.262C37.0666 170.394 44.2666 170.526 51.4666 170.262C64.2666 169.999 77.0666 169.867 89.8666 169.867C95.6 169.735 101.467 169.471 107.333 169.207C119.867 168.548 117.733 156.81 117.733 147.314C118 129.906 117.6 112.365 118.4 94.9565C119.067 79.1304 122.267 59.3478 117.6 43.9174ZM77.8666 56.9739C71.4666 57.2377 64.9333 57.1058 58.5333 57.1058C53.3333 57.2377 44 59.2159 39.2 56.842C36.4 55.6551 35.8666 52.358 35.7333 49.0609C31.3333 48.7971 22.1333 48.2696 20.6666 50.6435C18.9333 53.2811 20.9333 64.2275 20.8 67.3927C20.8 75.3058 20.5333 83.0869 20.5333 91C21.0666 108.409 20.2666 125.817 21.3333 143.226C21.4666 146.655 21.0666 151.667 22.4 154.7C24.6666 159.975 34.5333 158.657 40 158.525C48.9333 158.525 57.5999 157.865 66.3999 158.129C74.1333 158.261 82.2666 157.733 90 157.074C92.6666 156.81 102.133 158.393 103.867 156.81C104.4 156.283 104 152.985 104 152.326C104.267 145.6 104.133 138.874 104.267 132.016C104.267 112.849 104.222 93.6377 104.133 74.3826C104.044 67.7005 104 60.9744 104 54.2043C103.867 53.413 104.4 50.5116 103.867 49.7203C104 49.984 101.333 49.5884 100.133 49.5884C96.6666 49.5884 93.2 49.3246 89.7333 49.1927C89.8666 55.3913 86.1333 56.7101 77.8666 56.9739Z" fill="white"/>
<path d="M77.6 73.5913C80.5333 73.4594 83.3333 73.987 86.2666 74.1188C88.6666 74.2507 88.6666 77.9435 86.2666 77.8116C82.1333 77.6797 78.5333 77.1522 74.4 77.5478C71.6 77.9435 69.2 78.2072 66.4 78.0754C60.5333 77.6797 55.3333 77.2841 49.4666 77.9435C47.0666 78.2072 47.0666 74.5145 49.4666 74.2507C55.3333 73.5913 60.5333 74.1188 66.4 74.3826C70.1333 74.6464 73.7333 73.7232 77.6 73.5913Z" fill="white"/>
<path d="M86.9333 93.7696C89.3333 93.6377 89.2 97.1986 86.9333 97.4623C80.5333 97.858 75.0667 98.1217 68.6667 97.858C62 97.4623 55.4667 97.5942 48.8 97.7261C46.4 97.858 46.4 94.1652 48.8 94.0333C61.6 93.6377 74.2667 94.5609 86.9333 93.7696Z" fill="white"/>
<path d="M87.3333 117.377C81.4666 117.641 75.6 117.772 69.7333 117.772C62.6666 117.772 55.7333 116.717 48.8 118.432C46.5333 119.091 45.6 115.53 47.8666 115.003C54.4 113.288 60.5333 113.948 67.3333 114.08C74 114.212 80.6666 114.08 87.3333 113.684C89.7333 113.684 89.7333 117.377 87.3333 117.377Z" fill="white"/>
<path d="M87.2 137.687C74.5334 139.27 61.7334 135.313 49.3334 137.555C46.9334 137.951 46 134.39 48.2667 133.994C61.2 131.62 74.1334 135.709 87.2 133.994C89.6 133.73 89.6 137.423 87.2 137.687Z" fill="white"/>
<path d="M41.7333 78.471C40.5778 78.2952 39.4222 78.2512 38.2667 78.3391C35.8667 78.471 35.8667 74.7783 38.2667 74.6464C39.4222 74.5585 40.5778 74.6024 41.7333 74.7783C44 75.042 44.1333 78.7348 41.7333 78.471Z" fill="white"/>
<path d="M37.0667 94.2971C38.4 93.9014 41.0667 93.5058 42.1333 94.8246C42.5333 95.3521 42.9333 96.2753 42.4 96.9347C42.4 97.0227 42.4 97.0666 42.4 97.0666C41.6 97.9898 40.2667 97.9898 39.4667 97.3304C39.7333 97.7261 38.1333 97.8579 38 97.8579C35.7333 98.3855 34.8 94.8246 37.0667 94.2971Z" fill="white"/>
<path d="M41.0667 118.959C40 118.959 38.8889 118.959 37.7333 118.959C35.3333 118.959 35.3333 115.267 37.7333 115.267C38.8889 115.267 40 115.267 41.0667 115.267C43.4667 115.267 43.4667 118.959 41.0667 118.959Z" fill="white"/>
<path d="M40.9333 137.819C39.8667 137.819 38.8444 137.863 37.8667 137.951C35.4667 137.951 35.4667 134.258 37.8667 134.258C38.8444 134.17 39.8667 134.126 40.9333 134.126C43.3333 133.994 43.3333 137.687 40.9333 137.819Z" fill="white"/>
<path d="M62.6666 20.5739C65.0666 20.5739 65.0666 24.2667 62.6666 24.2667C60.2666 24.2667 60.2666 20.5739 62.6666 20.5739Z" fill="white"/>
<path d="M43.2 48.1377C43.4667 45.7637 42.9334 43.6536 44.2667 41.5435C45.4667 39.6971 47.3334 38.3782 49.3334 37.3232C51.4667 36.4 53.3334 39.5652 51.2 40.4884C49.7334 41.1478 48.4 42.071 47.4667 43.3898C46.5333 44.8406 47.0667 46.4232 46.9334 48.1377C46.8 50.3797 43.0667 50.3797 43.2 48.1377Z" fill="white"/>
<path d="M54.8 38.3782C57.2 38.3782 57.2 34.6855 54.8 34.6855C52.4 34.6855 52.4 38.3782 54.8 38.3782Z" fill="white"/>
</g>
<defs>
<clipPath id="clip0_13_342">
<rect width="132" height="182" fill="white"/>
</clipPath>
</defs>
</svg>
