<svg width="24" height="20" viewBox="0 0 24 20" fill="none" xmlns="http://www.w3.org/2000/svg">
<path d="M8.04922 19.2122C16.5578 19.2122 21.2109 12.1605 21.2109 6.04559C21.2109 5.84533 21.2068 5.64599 21.1978 5.44746C22.1032 4.7921 22.8845 3.98066 23.5053 3.05118C22.6764 3.41981 21.7845 3.66792 20.8488 3.77978C21.8038 3.2069 22.537 2.30059 22.883 1.22027C21.9749 1.75914 20.9815 2.13902 19.9456 2.34353C19.1014 1.44404 17.8997 0.88147 16.569 0.88147C14.0144 0.88147 11.9428 2.95385 11.9428 5.50837C11.9428 5.87154 11.9835 6.22469 12.0629 6.56353C8.21823 6.37 4.80909 4.52859 2.52751 1.72862C2.11658 2.43483 1.90043 3.23745 1.90115 4.05451C1.90115 5.66001 2.71778 7.07729 3.95969 7.90648C3.22509 7.88404 2.50661 7.68554 1.86467 7.32769C1.86399 7.34712 1.86399 7.36605 1.86399 7.38681C1.86399 9.62787 3.45848 11.499 5.57513 11.923C5.17759 12.0313 4.76738 12.0861 4.35536 12.0858C4.0578 12.0858 3.76781 12.0566 3.48598 12.0024C4.0749 13.8411 5.78259 15.1791 7.80726 15.2165C6.22399 16.4579 4.22956 17.1973 2.06191 17.1973C1.69317 17.1976 1.32472 17.1762 0.958496 17.1332C3.00576 18.4459 5.43669 19.2118 8.04945 19.2118" fill="#BBF246"/>
</svg>
