<svg id="Capa_2" data-name="Capa 2" xmlns="http://www.w3.org/2000/svg" viewBox="0 0 1000 1000"><defs><style>.cls-1{fill:#1e7d34;}.cls-2{fill:#25aa5f;}.cls-3{fill:#fff;}</style></defs><path class="cls-1" d="M461.29,791s-66-117.4,47.7-228.38c0,0,167.85-143.08,111.9-332.94,0,0,119.23,176.1,46.77,336.61C667.66,566.32,630.52,694,461.29,791Z"/><path class="cls-2" d="M434.47,791s-141.71-88.74-116.26-261.4c0,0-39.21-59.16-16.51-112.13,0,0-61.22-19.95-88.74-83.23,0,0-32.33-26.83-11-43.34,0,0,15.82-35.08,66.72-50.9,0,0,13.07-6.2,40.59-30.27,0,0,11.69-6.88,60.53,20,0,0,15.83,69.48-46.77,33,0,0-15.83-17.2-14.45-21.33,0,0-18.57,6.19-37.83,61.22,0,0-2.76,10.32-28.21,19.27,0,0,15.14,4.81,34.4-13.07,0,0,35.08,13.07,43.33,42.65,0,0,42,2.75,55,37.83,0,0,37.14,3.44,25.45-30.27,0,0-3.8-4.75-25.68-.61,0,0-10.4-17.27,2.6-49.68,0,0-15.75-5.5-13.76-9.33A81.18,81.18,0,0,1,392.05,285s.61-7.18-2.91-11c0,0,.77-18.35,19.11-31.19,0,0,.15-6.11-3.82-8.4,0,0-1.53-11,2-13.3,0,0,30.42,5.81,76,3.51,0,0,21.25-1.53,20,31.49,0,0,33,28.13.05,70.78,0,0-24.67,21.1-27,33,0,0-5.5,47.69,23.85,49.53,0,0,49.07,1.83,56.86,22.93,0,0,50.91-61,50.91-73.84,0,0-11.47,75.57-73.38,141.43,0,0-77,73.2-86.67,103C447.08,603,398.92,677.76,434.47,791Z"/><path class="cls-3" d="M396.17,728.66s-29.35-88-14.67-199.49C381.5,529.17,344.81,644.74,396.17,728.66Z"/><path class="cls-3" d="M252.17,340.46s21.33,26.83,51.6,35.08C303.77,375.54,267.31,379.67,252.17,340.46Z"/></svg>